<?xml version="1.0"?>
<svg xmlns="http://www.w3.org/2000/svg" height="512px" viewBox="0 -111 512 512" width="512px"><g><path d="m472 90h-60.648438l-51.085937-76.632812c-5.578125-8.371094-14.910156-13.367188-24.964844-13.367188-8.65625 0-273.292969 0-281.441406 0-12.433594 0-23.722656 7.824219-28.09375 19.46875l-25.128906 67.019531c-.421875 1.121094-.636719 2.3125-.636719 3.511719v110c0 16.542969 13.457031 29.988281 30 29.988281h36.230469c-.148438 1.65625-.230469 3.324219-.230469 5 0 30.328125 24.671875 55.011719 55 55.011719s55-24.671875 55-55c0-1.679688-.078125-3.34375-.230469-5h55.230469c5.523438 0 10-4.476562 10-10 0-3.699219-2.015625-6.921875-5-8.652344v-101.347656h236c11.027344 0 20 8.972656 20 20v20h-20c-5.523438 0-10 4.476562-10 10s4.476562 10 10 10h20v30c0 5.515625-4.484375 10-10 10h-42.015625c-9.289063-18.195312-28.15625-30-48.984375-30-20.835938 0-39.710938 11.8125-48.988281 30h-21.011719c-5.523438 0-10 4.476562-10 10s4.476562 9.988281 10 9.988281h15.230469c-.148438 1.65625-.230469 3.324219-.230469 5 0 30.328125 24.671875 55.011719 55 55.011719s55-24.671875 55-55c0-1.675781-.078125-3.34375-.230469-5h36.230469c16.542969 0 30-13.457031 30-30v-70c0-22.054688-17.945312-40-40-40zm-256 0h-97.535156l15.558594-70h81.976562zm-171.507812-63.507812c1.457031-3.882813 5.222656-6.492188 9.367187-6.492188h59.675781l-15.558594 70h-77.296874zm76.507812 243.507812c-19.300781 0-35-15.699219-35-35 0-19.464844 15.832031-35 35-35 19.261719 0 35 15.640625 35 35 0 19.300781-15.699219 35-35 35zm95-60h-46.015625c-9.289063-18.195312-28.160156-30-48.984375-30-20.835938 0-39.710938 11.8125-48.988281 30h-42.011719c-5.515625 0-10-4.484375-10-10v-30h20c5.523438 0 10-4.476562 10-10s-4.476562-10-10-10h-20v-40h196zm20-190h99.300781c3.351563 0 6.460938 1.664062 8.320313 4.457031l43.695312 65.542969h-151.316406zm155 250c-19.300781 0-35-15.699219-35-35 0-19.425781 15.796875-35 35-35 19.261719 0 35 15.640625 35 35 0 19.300781-15.699219 35-35 35zm0 0" data-original="#000000" class="active-path" data-old_color="#000000" fill="#1DBF73"/><path d="m121 220c-8.269531 0-15 6.730469-15 15s6.730469 15 15 15 15-6.730469 15-15-6.730469-15-15-15zm0 0" data-original="#000000" class="active-path" data-old_color="#000000" fill="#1DBF73"/><path d="m391 220c-8.269531 0-15 6.730469-15 15s6.730469 15 15 15 15-6.730469 15-15-6.730469-15-15-15zm0 0" data-original="#000000" class="active-path" data-old_color="#000000" fill="#1DBF73"/><path d="m326 160c0-5.523438-4.476562-10-10-10h-30c-5.523438 0-10 4.476562-10 10s4.476562 10 10 10h30c5.523438 0 10-4.476562 10-10zm0 0" data-original="#000000" class="active-path" data-old_color="#000000" fill="#1DBF73"/><path d="m286 220c0 5.523438-4.476562 10-10 10s-10-4.476562-10-10 4.476562-10 10-10 10 4.476562 10 10zm0 0" data-original="#000000" class="active-path" data-old_color="#000000" fill="#1DBF73"/></g> </svg>
