<?xml version="1.0"?>
<svg xmlns="http://www.w3.org/2000/svg" viewBox="0 0 64 64" width="512px" height="512px"><g><g id="Outline"><g><circle cx="34" cy="39" r="1" data-original="#000000" class="active-path" data-old_color="#000000" fill="#1DBF73"/><circle cx="29" cy="33" r="1" data-original="#000000" class="active-path" data-old_color="#000000" fill="#1DBF73"/><circle cx="34" cy="44" r="1" data-original="#000000" class="active-path" data-old_color="#000000" fill="#1DBF73"/><circle cx="29" cy="39" r="1" data-original="#000000" class="active-path" data-old_color="#000000" fill="#1DBF73"/><circle cx="40" cy="33" r="1" data-original="#000000" class="active-path" data-old_color="#000000" fill="#1DBF73"/><circle cx="29" cy="44" r="1" data-original="#000000" class="active-path" data-old_color="#000000" fill="#1DBF73"/><circle cx="34" cy="50" r="1" data-original="#000000" class="active-path" data-old_color="#000000" fill="#1DBF73"/><circle cx="29" cy="50" r="1" data-original="#000000" class="active-path" data-old_color="#000000" fill="#1DBF73"/><path d="M57.967,39.2,50.943,12.462A7.021,7.021,0,0,0,45.39,7.347L41.711,6.7l-.422-2.25A3,3,0,0,0,38.34,2H25.66a3,3,0,0,0-2.949,2.447L20.017,18.816A1,1,0,0,0,21,20h3.719l-.689,2.757a1,1,0,0,0,.237.924l13,14a1,1,0,0,0,1.675-1.014l-3.431-9.723,4.1-3.152a1,1,0,0,0,.361-1.035L39.281,20H43a1,1,0,0,0,.982-1.184L43.05,13.84a1,1,0,1,0-1.965.368L41.8,18H38a1,1,0,0,0-.97,1.243l.841,3.364-3.06,2.353-1.193-3.381,5.11-17.5a1,1,0,0,1,.595.738l1.025,5.461a1,1,0,1,0,1.964-.369L42.1,8.8l2.938.519A5.017,5.017,0,0,1,49.01,12.97l6.774,25.79-3.023.861L46.7,21.887c.093-.389.173-.78.275-1.169a1,1,0,0,0-1.936-.5A60.682,60.682,0,0,0,43.418,42H39V41a1,1,0,0,0-2,0V60H18.147L19.8,48H26a1,1,0,0,0,1-1V43a1,1,0,0,0-1-1H20.582a60.66,60.66,0,0,0-1.623-21.787,1,1,0,0,0-1.936.5c.1.389.182.78.275,1.169L11.239,39.621,8.216,38.76l6.775-25.79a5.013,5.013,0,0,1,3.967-3.653,1,1,0,0,0-.348-1.97,7.024,7.024,0,0,0-5.554,5.115L6.033,39.2a1,1,0,0,0,.693,1.216L11.6,41.8a1,1,0,0,0,1.221-.638l5.268-15.421a58.642,58.642,0,0,1,.287,17.927L16.009,60.863A1,1,0,0,0,17,62H38a1,1,0,0,0,1-1V48h2.07a1,1,0,0,0,0-2H39V44h4.646l2.207,16H42a1,1,0,0,0,0,2h5a1,1,0,0,0,.99-1.137L45.619,43.672a58.667,58.667,0,0,1,.288-17.926l5.268,15.42a1,1,0,0,0,1.22.638l4.878-1.389A1,1,0,0,0,57.967,39.2ZM26.1,22.717l.868-3.474A1,1,0,0,0,26,18h-3.8L24.677,4.815a1,1,0,0,1,.637-.753L35.452,32.787ZM27.413,4h9.253L32.478,18.348ZM25,46H20.078l.276-2H25Z" data-original="#000000" class="active-path" data-old_color="#000000" fill="#1DBF73"/></g></g></g> </svg>
