<?xml version="1.0"?>
<svg xmlns="http://www.w3.org/2000/svg" height="512px" viewBox="1 -12 511.99947 511" width="512px" class=""><g><path d="m176.355469 136.257812c0 4.136719 3.363281 7.5 7.5 7.5s7.5-3.363281 7.5-7.5c0-4.136718-3.363281-7.5-7.5-7.5s-7.5 3.363282-7.5 7.5zm0 0" data-original="#000000" class="active-path" data-old_color="#000000" fill="#1DBF73"/><path d="m116.046875 34.96875c20.472656-12.734375 43.917969-19.46875 67.808594-19.46875 23.886719 0 47.335937 6.734375 67.808593 19.46875 1.230469.769531 2.601563 1.136719 3.953126 1.136719 2.503906 0 4.953124-1.257813 6.375-3.539063 2.1875-3.519531 1.113281-8.144531-2.40625-10.332031-22.851563-14.21875-49.039063-21.734375-75.730469-21.734375-26.691407 0-52.878907 7.515625-75.734375 21.734375-3.515625 2.1875-4.59375 6.8125-2.40625 10.332031 2.191406 3.515625 6.8125 4.59375 10.332031 2.402344zm0 0" data-original="#000000" class="active-path" data-old_color="#000000" fill="#1DBF73"/><path d="m239.8125 65.828125c2.140625-3.546875 1.003906-8.15625-2.542969-10.296875-16.199219-9.78125-34.667969-14.949219-53.414062-14.949219-18.746094 0-37.21875 5.167969-53.414063 14.949219-3.546875 2.140625-4.6875 6.75-2.546875 10.296875 1.410157 2.332031 3.886719 3.625 6.429688 3.625 1.320312 0 2.65625-.351563 3.867187-1.082031 13.859375-8.367188 29.648438-12.789063 45.664063-12.789063 16.011719 0 31.800781 4.421875 45.660156 12.789063 3.550781 2.140625 8.15625 1 10.296875-2.542969zm0 0" data-original="#000000" class="active-path" data-old_color="#000000" fill="#1DBF73"/><path d="m217.632812 99.070312c2.027344-3.617187.734376-8.1875-2.878906-10.210937-9.714844-5.4375-20.113281-8.199219-30.898437-8.199219-10.789063 0-21.183594 2.761719-30.902344 8.199219-3.613281 2.023437-4.902344 6.59375-2.878906 10.210937 1.375 2.453126 3.925781 3.835938 6.550781 3.835938 1.242188 0 2.5-.308594 3.65625-.957031 7.453125-4.171875 15.382812-6.289063 23.574219-6.289063 8.1875 0 16.121093 2.117188 23.570312 6.289063 3.613281 2.023437 8.183594.734375 10.207031-2.878907zm0 0" data-original="#000000" class="active-path" data-old_color="#000000" fill="#1DBF73"/><path d="m504.5 473.449219h-8.53125v-160.148438l2.269531 3.441407c2.28125 3.457031 6.9375 4.410156 10.390625 2.128906 3.457032-2.28125 4.410156-6.933594 2.128906-10.390625l-132.265624-200.402344c-1.386719-2.101563-3.738282-3.367187-6.261719-3.367187-2.519531 0-4.871094 1.265624-6.257813 3.367187l-61.285156 92.855469c-.195312-.015625-.390625-.03125-.59375-.03125h-40.59375v-8.53125c0-8.554688-6.960938-15.515625-15.515625-15.515625h-128.257813c-8.558593 0-15.515624 6.960937-15.515624 15.515625v8.53125h-24.566407c-2.460937 0-4.765625 1.210937-6.167969 3.230468l-72.140624 104.210938c-1.589844 2.292969-1.773438 5.28125-.480469 7.75 1.296875 2.472656 3.855469 4.019531 6.644531 4.019531h8.53125v153.335938h-8.53125c-4.140625 0-7.5 3.359375-7.5 7.5 0 4.144531 3.359375 7.5 7.5 7.5h497c4.140625 0 7.5-3.355469 7.5-7.5 0-4.140625-3.359375-7.5-7.5-7.5zm-23.53125 0h-17.066406v-120.757813c0-4.140625-3.355469-7.5-7.5-7.5h-168.339844c-4.140625 0-7.5 3.359375-7.5 7.5v120.757813h-17.0625v-182.875l17.0625-25.855469v31.863281c0 4.140625 3.359375 7.5 7.5 7.5h168.339844c4.140625 0 7.5-3.359375 7.5-7.5v-31.863281l17.0625 25.855469v182.875zm-80.679688-80.160157c-4.140624 0-7.5 3.359376-7.5 7.5v72.660157h-41.113281v-113.257813h41.113281v8.535156c0 4.140626 3.359376 7.5 7.5 7.5 4.144532 0 7.5-3.359374 7.5-7.5v-8.535156h41.113282v113.257813h-41.113282v-72.660157c0-4.140624-3.355468-7.5-7.5-7.5zm-63.613281 80.160157h-41.113281v-113.257813h41.113281zm112.226563-225.480469v41.113281h-41.113282v-41.113281zm-56.109375 41.113281h-41.113281v-41.113281h41.113281zm-56.113281 0h-41.117188v-41.113281h41.117188zm35.550781-163.257812 70.714843 107.144531h-141.425781zm-123.730469 66.546875v32.0625c0 .285156-.230469.515625-.515625.515625h-32.582031v-33.097657h32.582031c.285156.003907.515625.234376.515625.519532zm-81.191406 32.582031v-33.097656h33.09375v33.097656zm-48.097656-32.582031c0-.285156.230468-.515625.515624-.515625h32.582032v33.097656h-32.582032c-.285156 0-.515624-.234375-.515624-.519531zm-88.179688 127.742187h8.535156c4.140625 0 7.5-3.359375 7.5-7.5s-3.359375-7.5-7.5-7.5h-17.75l61.757813-89.210937h20.636719v8.53125c0 8.558594 6.957031 15.519531 15.515624 15.519531h8.53125v16.546875c0 4.140625 3.359376 7.5 7.5 7.5 4.144532 0 7.5-3.359375 7.5-7.5v-16.546875h81.195313v16.546875c0 4.140625 3.355469 7.5 7.5 7.5 4.140625 0 7.5-3.359375 7.5-7.5v-16.546875h8.53125c8.554687 0 15.515625-6.960937 15.515625-15.519531v-8.53125h31.308594l-58.878906 89.210937h-164.296876c-4.144531 0-7.5 3.359375-7.5 7.5s3.355469 7.5 7.5 7.5h176.867188v153.335938h-17.0625v-120.757813c0-4.140625-3.359375-7.5-7.5-7.5h-168.339844c-4.144531 0-7.5 3.359375-7.5 7.5v120.757813h-17.066406zm88.179688 40.078125h41.113281v113.257813h-41.113281zm-15 113.257813h-41.113282v-113.257813h41.113282zm71.113281-113.257813h41.113281v113.257813h-41.113281zm0 0" data-original="#000000" class="active-path" data-old_color="#000000" fill="#1DBF73"/></g> </svg>
